<svg xmlns="http://www.w3.org/2000/svg" width="27.86" height="20.71" viewBox="0 0 27.86 20.71"><defs><style>.cls-1{isolation:isolate;}.cls-2{mix-blend-mode:multiply;}.cls-3{fill:#ed2590;}.cls-4{fill:#47c8f5;}.cls-5{fill:#333;}</style></defs><title>flo-logo-small</title><g class="cls-1"><g id="flo"><g id="magenta" class="cls-2"><path class="cls-3" d="M1702,915.75V900a9.06,9.06,0,0,0-4.6-1.09c-3.46,0-5.1,1.53-5.1,4.11v1.72h-2.39v1.3h2.39v12.71h1.51V906.06h3.51v-1.3h-3.51v-1.82c0-1.82,1-2.65,3.38-2.65a8.9,8.9,0,0,1,3.3.49v15.39c0,1.69.81,2.78,2.65,2.78a4.75,4.75,0,0,0,1.74-.31v-1.35a2.84,2.84,0,0,1-1.35.34C1702.41,917.63,1702,917.05,1702,915.75Z" transform="translate(-1689.26 -898.26)"/><path class="cls-3" d="M1711.56,904.5c-4.13,0-5.72,3-5.72,7.31s1.46,7.18,5.56,7.18,5.72-3,5.72-7.33S1715.67,904.5,1711.56,904.5Zm0,13.08c-2.91,0-4.16-1.95-4.16-5.93s1.09-5.75,4-5.75,4.16,1.92,4.16,5.9S1714.48,917.57,1711.56,917.57Z" transform="translate(-1689.26 -898.26)"/></g><g id="cyan" class="cls-2"><path class="cls-4" d="M1701.35,915.08V899.36a9.06,9.06,0,0,0-4.6-1.09c-3.46,0-5.1,1.53-5.1,4.11v1.72h-2.39v1.3h2.39V918.1h1.51V905.39h3.51v-1.3h-3.51v-1.82c0-1.82,1-2.65,3.38-2.65a8.9,8.9,0,0,1,3.3.49V915.5c0,1.69.81,2.78,2.65,2.78a4.75,4.75,0,0,0,1.74-.31v-1.35a2.84,2.84,0,0,1-1.35.34C1701.74,917,1701.35,916.38,1701.35,915.08Z" transform="translate(-1689.26 -898.26)"/><path class="cls-4" d="M1710.89,903.83c-4.13,0-5.72,3-5.72,7.31s1.46,7.18,5.56,7.18,5.72-3,5.72-7.33S1715,903.83,1710.89,903.83Zm0,13.08c-2.91,0-4.16-1.95-4.16-5.93s1.09-5.75,4-5.75,4.16,1.92,4.16,5.9S1713.81,916.9,1710.89,916.9Z" transform="translate(-1689.26 -898.26)"/></g><g id="black"><path class="cls-5" d="M1701.69,915.42V899.69a9.06,9.06,0,0,0-4.6-1.09c-3.46,0-5.1,1.53-5.1,4.11v1.72h-2.39v1.3H1692v12.71h1.51V905.72H1697v-1.3h-3.51V902.6c0-1.82,1-2.65,3.38-2.65a8.9,8.9,0,0,1,3.3.49v15.39c0,1.69.81,2.78,2.65,2.78a4.75,4.75,0,0,0,1.74-.31V917a2.84,2.84,0,0,1-1.35.34C1702.08,917.29,1701.69,916.72,1701.69,915.42Z" transform="translate(-1689.26 -898.26)"/><path class="cls-5" d="M1711.23,904.16c-4.13,0-5.72,3-5.72,7.31s1.46,7.18,5.56,7.18,5.72-3,5.72-7.33S1715.34,904.16,1711.23,904.16Zm0,13.08c-2.91,0-4.16-1.95-4.16-5.93s1.09-5.75,4-5.75,4.16,1.92,4.16,5.9S1714.14,917.24,1711.23,917.24Z" transform="translate(-1689.26 -898.26)"/></g></g></g></svg>