<svg xmlns="http://www.w3.org/2000/svg" xmlns:xlink="http://www.w3.org/1999/xlink" width="180.37" height="75.41" viewBox="0 0 180.37 75.41"><defs><style>.cls-1{fill:none;}.cls-2{isolation:isolate;}.cls-10,.cls-3,.cls-8,.cls-9{mix-blend-mode:multiply;}.cls-4,.cls-8{fill:#ed2590;}.cls-5{fill:#47c8f5;}.cls-6{fill:#333;}.cls-7{clip-path:url(#clip-path);}.cls-9{fill:#33c6f4;}.cls-10{fill:#f6ec13;}.cls-11{fill:#fff;}</style><clipPath id="clip-path" transform="translate(-1779.94 -616.44)"><polygon class="cls-1" points="1866.53 629.39 1782.62 629.39 1782.62 657.16 1817.64 692.18 1866.53 692.18 1866.53 629.39"/></clipPath></defs><title>flo-logo</title><g class="cls-2"><g id="flo"><g id="magenta" class="cls-3"><path class="cls-4" d="M1915.21,682.22v-47c-2.17-1.47-7.37-3.26-13.74-3.26-10.32,0-15.22,4.58-15.22,12.27v5.12h-7.14v3.88h7.14v38h4.5v-38h10.48v-3.88h-10.48V644c0-5.43,2.95-7.92,10.09-7.92a26.57,26.57,0,0,1,9.86,1.47v46c0,5,2.41,8.31,7.92,8.31a14.2,14.2,0,0,0,5.2-.93v-4a8.47,8.47,0,0,1-4,1C1916.37,687.81,1915.21,686.1,1915.21,682.22Z" transform="translate(-1779.94 -616.44)"/><path class="cls-4" d="M1943.7,648.61c-12.34,0-17.08,8.85-17.08,21.81,0,12.73,4.35,21.43,16.61,21.43s17.08-8.93,17.08-21.89C1960.31,657.23,1956,648.61,1943.7,648.61Zm0,39c-8.69,0-12.42-5.82-12.42-17.7,0-11.57,3.26-17.16,12-17.16s12.42,5.74,12.42,17.62C1955.66,682,1952.4,687.66,1943.7,687.66Z" transform="translate(-1779.94 -616.44)"/></g><g id="cyan" class="cls-3"><path class="cls-5" d="M1913.21,680.22v-47c-2.17-1.47-7.37-3.26-13.74-3.26-10.32,0-15.22,4.58-15.22,12.27v5.12h-7.14v3.88h7.14v38h4.5v-38h10.48v-3.88h-10.48V642c0-5.43,2.95-7.92,10.09-7.92a26.57,26.57,0,0,1,9.86,1.47v46c0,5,2.41,8.31,7.92,8.31a14.2,14.2,0,0,0,5.2-.93v-4a8.47,8.47,0,0,1-4,1C1914.37,685.81,1913.21,684.1,1913.21,680.22Z" transform="translate(-1779.94 -616.44)"/><path class="cls-5" d="M1941.7,646.61c-12.34,0-17.08,8.85-17.08,21.81,0,12.73,4.35,21.43,16.61,21.43s17.08-8.93,17.08-21.89C1958.31,655.23,1954,646.61,1941.7,646.61Zm0,39c-8.69,0-12.42-5.82-12.42-17.7,0-11.57,3.26-17.16,12-17.16s12.42,5.74,12.42,17.62C1953.66,680,1950.4,685.66,1941.7,685.66Z" transform="translate(-1779.94 -616.44)"/></g><g id="black"><path class="cls-6" d="M1914.21,681.22v-47c-2.17-1.47-7.37-3.26-13.74-3.26-10.32,0-15.22,4.58-15.22,12.27v5.12h-7.14v3.88h7.14v38h4.5v-38h10.48v-3.88h-10.48V643c0-5.43,2.95-7.92,10.09-7.92a26.57,26.57,0,0,1,9.86,1.47v46c0,5,2.41,8.31,7.92,8.31a14.2,14.2,0,0,0,5.2-.93v-4a8.47,8.47,0,0,1-4,1C1915.37,686.81,1914.21,685.1,1914.21,681.22Z" transform="translate(-1779.94 -616.44)"/><path class="cls-6" d="M1942.7,647.61c-12.34,0-17.08,8.85-17.08,21.81,0,12.73,4.35,21.43,16.61,21.43s17.08-8.93,17.08-21.89C1959.31,656.23,1955,647.61,1942.7,647.61Zm0,39c-8.69,0-12.42-5.82-12.42-17.7,0-11.57,3.26-17.16,12-17.16s12.42,5.74,12.42,17.62C1954.66,681,1951.4,686.66,1942.7,686.66Z" transform="translate(-1779.94 -616.44)"/></g><g class="cls-7"><g id="logo"><rect class="cls-8" x="2.67" y="57.49" width="64.29" height="17.72"/><rect class="cls-9" x="2.67" y="40.77" width="51.83" height="16.96"/><rect class="cls-10" x="1776.18" y="640.3" width="66.64" height="16.96" transform="translate(-791.2 -1705.93) rotate(45)"/><rect class="cls-9" x="1798.75" y="636.36" width="63.68" height="17.67" transform="translate(-787.55 -1721.89) rotate(45)"/><rect class="cls-6" x="13.66" y="52.52" width="54.95" height="10.07"/><rect class="cls-6" x="1787.78" y="644.47" width="69.26" height="10.07" transform="translate(-786.9 -1714.84) rotate(45)"/><circle class="cls-6" cx="66.96" cy="57.55" r="17.66"/><circle class="cls-11" cx="66.96" cy="57.55" r="8.56"/></g></g></g></g></svg>