<svg xmlns="http://www.w3.org/2000/svg" width="132.49" height="81.6" viewBox="0 0 132.49 81.6"><defs><style>.cls-1{isolation:isolate;}.cls-2,.cls-3,.cls-4,.cls-5{fill:none;stroke-miterlimit:10;stroke-width:4px;}.cls-2{stroke:#ed2590;}.cls-2,.cls-3,.cls-4,.cls-8{mix-blend-mode:multiply;}.cls-3{stroke:#33c6f4;}.cls-4{stroke:#f6ec13;}.cls-5{stroke:#333;}.cls-6{fill:#333;}.cls-7{fill:#fff;}.cls-9{fill:#ed2590;}.cls-10{fill:#47c8f5;}</style></defs><title>flo-logo</title><g class="cls-1"><g id="flo"><line class="cls-2" x1="132.49" y1="76.72" y2="76.74"/><line class="cls-3" x1="132.49" y1="70.19" y2="70.21"/><line class="cls-4" x1="33.87" y1="75.96" x2="6" y2="51.9"/><line class="cls-3" x1="38.12" y1="71.01" x2="10.28" y2="46.95"/><line class="cls-5" x1="132.49" y1="73.45" y2="73.47"/><line class="cls-5" x1="36.02" y1="73.47" x2="8.16" y2="49.4"/><circle class="cls-6" cx="36.02" cy="73.47" r="8.13"/><circle class="cls-7" cx="36.02" cy="73.47" r="3.8"/><g id="magenta" class="cls-8"><path class="cls-9" d="M1514.27,666.28v-47c-2.17-1.47-7.37-3.26-13.74-3.26-10.32,0-15.22,4.58-15.22,12.27v5.12h-7.14v3.88h7.14v38h4.5v-38h10.48v-3.88h-10.48V628c0-5.43,2.95-7.92,10.09-7.92a26.57,26.57,0,0,1,9.86,1.47v46c0,5,2.41,8.31,7.92,8.31a14.2,14.2,0,0,0,5.2-.93v-4a8.47,8.47,0,0,1-4,1C1515.44,671.87,1514.27,670.16,1514.27,666.28Z" transform="translate(-1437.02 -614.06)"/><path class="cls-9" d="M1542.76,632.67c-12.34,0-17.08,8.85-17.08,21.81,0,12.73,4.35,21.43,16.61,21.43s17.08-8.93,17.08-21.89C1559.38,641.29,1555,632.67,1542.76,632.67Zm0,39c-8.69,0-12.42-5.82-12.42-17.7,0-11.57,3.26-17.16,12-17.16s12.42,5.74,12.42,17.62C1554.72,666,1551.46,671.72,1542.76,671.72Z" transform="translate(-1437.02 -614.06)"/></g><g id="cyan" class="cls-8"><path class="cls-10" d="M1512.27,664.28v-47c-2.17-1.47-7.37-3.26-13.74-3.26-10.32,0-15.22,4.58-15.22,12.27v5.12h-7.14v3.88h7.14v38h4.5v-38h10.48v-3.88h-10.48V626c0-5.43,2.95-7.92,10.09-7.92a26.57,26.57,0,0,1,9.86,1.47v46c0,5,2.41,8.31,7.92,8.31a14.2,14.2,0,0,0,5.2-.93v-4a8.47,8.47,0,0,1-4,1C1513.44,669.87,1512.27,668.16,1512.27,664.28Z" transform="translate(-1437.02 -614.06)"/><path class="cls-10" d="M1540.76,630.67c-12.34,0-17.08,8.85-17.08,21.81,0,12.73,4.35,21.43,16.61,21.43s17.08-8.93,17.08-21.89C1557.38,639.29,1553,630.67,1540.76,630.67Zm0,39c-8.69,0-12.42-5.82-12.42-17.7,0-11.57,3.26-17.16,12-17.16s12.42,5.74,12.42,17.62C1552.72,664,1549.46,669.72,1540.76,669.72Z" transform="translate(-1437.02 -614.06)"/></g><g id="black"><path class="cls-6" d="M1513.27,665.28v-47c-2.17-1.47-7.37-3.26-13.74-3.26-10.32,0-15.22,4.58-15.22,12.27v5.12h-7.14v3.88h7.14v38h4.5v-38h10.48v-3.88h-10.48V627c0-5.43,2.95-7.92,10.09-7.92a26.57,26.57,0,0,1,9.86,1.47v46c0,5,2.41,8.31,7.92,8.31a14.2,14.2,0,0,0,5.2-.93v-4a8.47,8.47,0,0,1-4,1C1514.44,670.87,1513.27,669.16,1513.27,665.28Z" transform="translate(-1437.02 -614.06)"/><path class="cls-6" d="M1541.76,631.67c-12.34,0-17.08,8.85-17.08,21.81,0,12.73,4.35,21.43,16.61,21.43s17.08-8.93,17.08-21.89C1558.38,640.29,1554,631.67,1541.76,631.67Zm0,39c-8.69,0-12.42-5.82-12.42-17.7,0-11.57,3.26-17.16,12-17.16s12.42,5.74,12.42,17.62C1553.72,665,1550.46,670.72,1541.76,670.72Z" transform="translate(-1437.02 -614.06)"/></g></g></g></svg>