<svg xmlns="http://www.w3.org/2000/svg" width="85.2" height="63.85" viewBox="0 0 85.2 63.85"><defs><style>.cls-1{isolation:isolate;}.cls-2{mix-blend-mode:multiply;}.cls-3{fill:#ed2590;}.cls-4{fill:#47c8f5;}.cls-5{fill:#231f20;}</style></defs><title>flo-logo</title><g class="cls-1"><g id="flo"><g id="magenta" class="cls-2"><path class="cls-3" d="M1342.85,463.81v-47c-2.17-1.47-7.37-3.26-13.74-3.26-10.32,0-15.22,4.58-15.22,12.27V431h-7.14v3.88h7.14v38h4.5v-38h10.48V431h-10.48v-5.43c0-5.43,2.95-7.92,10.09-7.92a26.57,26.57,0,0,1,9.86,1.47v46c0,5,2.41,8.31,7.92,8.31a14.2,14.2,0,0,0,5.2-.93v-4a8.47,8.47,0,0,1-4,1C1344,469.4,1342.85,467.69,1342.85,463.81Z" transform="translate(-1302.75 -409.58)"/><path class="cls-3" d="M1371.34,430.19c-12.34,0-17.08,8.85-17.08,21.81,0,12.73,4.35,21.43,16.61,21.43s17.08-8.93,17.08-21.89C1388,438.81,1383.6,430.19,1371.34,430.19Zm0,39c-8.69,0-12.42-5.82-12.42-17.7,0-11.57,3.26-17.16,12-17.16s12.42,5.74,12.42,17.62C1383.29,463.57,1380,469.24,1371.34,469.24Z" transform="translate(-1302.75 -409.58)"/></g><g id="cyan" class="cls-2"><path class="cls-4" d="M1338.85,459.81v-47c-2.17-1.47-7.37-3.26-13.74-3.26-10.32,0-15.22,4.58-15.22,12.27V427h-7.14v3.88h7.14v38h4.5v-38h10.48V427h-10.48v-5.43c0-5.43,2.95-7.92,10.09-7.92a26.57,26.57,0,0,1,9.86,1.47v46c0,5,2.41,8.31,7.92,8.31a14.2,14.2,0,0,0,5.2-.93v-4a8.47,8.47,0,0,1-4,1C1340,465.4,1338.85,463.69,1338.85,459.81Z" transform="translate(-1302.75 -409.58)"/><path class="cls-4" d="M1367.34,426.19c-12.34,0-17.08,8.85-17.08,21.81,0,12.73,4.35,21.43,16.61,21.43s17.08-8.93,17.08-21.89C1384,434.81,1379.6,426.19,1367.34,426.19Zm0,39c-8.69,0-12.42-5.82-12.42-17.7,0-11.57,3.26-17.16,12-17.16s12.42,5.74,12.42,17.62C1379.29,459.57,1376,465.24,1367.34,465.24Z" transform="translate(-1302.75 -409.58)"/></g><g id="black"><path class="cls-5" d="M1340.85,461.81v-47c-2.17-1.47-7.37-3.26-13.74-3.26-10.32,0-15.22,4.58-15.22,12.27V429h-7.14v3.88h7.14v38h4.5v-38h10.48V429h-10.48v-5.43c0-5.43,2.95-7.92,10.09-7.92a26.57,26.57,0,0,1,9.86,1.47v46c0,5,2.41,8.31,7.92,8.31a14.2,14.2,0,0,0,5.2-.93v-4a8.47,8.47,0,0,1-4,1C1342,467.4,1340.85,465.69,1340.85,461.81Z" transform="translate(-1302.75 -409.58)"/><path class="cls-5" d="M1369.34,428.19c-12.34,0-17.08,8.85-17.08,21.81,0,12.73,4.35,21.43,16.61,21.43s17.08-8.93,17.08-21.89C1386,436.81,1381.6,428.19,1369.34,428.19Zm0,39c-8.69,0-12.42-5.82-12.42-17.7,0-11.57,3.26-17.16,12-17.16s12.42,5.74,12.42,17.62C1381.29,461.57,1378,467.24,1369.34,467.24Z" transform="translate(-1302.75 -409.58)"/></g></g></g></svg>