<svg xmlns="http://www.w3.org/2000/svg" width="175.27" height="75.94" viewBox="0 0 175.27 75.94"><defs><style>.cls-1{isolation:isolate;}.cls-2,.cls-3,.cls-4,.cls-5,.cls-6{fill:none;stroke-miterlimit:10;stroke-width:4px;}.cls-2{stroke:#ed2590;}.cls-2,.cls-3,.cls-4,.cls-5,.cls-9{mix-blend-mode:multiply;}.cls-3{stroke:#f7ed38;}.cls-4{stroke:#33c6f4;}.cls-5{stroke:#74c044;}.cls-6{stroke:#333;}.cls-7{fill:#333;}.cls-8{fill:#fff;}.cls-10{fill:#ed2590;}.cls-11{fill:#47c8f5;}</style></defs><title>flo-logo</title><g class="cls-1"><g id="flo"><line class="cls-2" x1="172.76" y1="56.4" x2="80.62" y2="56.4"/><line class="cls-3" x1="125.46" y1="55.63" x2="94.93" y2="29.32"/><line class="cls-4" x1="172.76" y1="49.88" x2="80.62" y2="49.88"/><line class="cls-4" x1="129.71" y1="50.68" x2="99.21" y2="24.37"/><line class="cls-4" x1="131.21" y1="55.54" x2="125.55" y2="15.66"/><line class="cls-5" x1="124.74" y1="56.47" x2="119.07" y2="16.57"/><line class="cls-6" x1="172.76" y1="53.13" x2="80.62" y2="53.13"/><line class="cls-6" x1="127.61" y1="53.13" x2="97.1" y2="26.82"/><line class="cls-6" x1="128.01" y1="56" x2="122.34" y2="16.11"/><circle class="cls-7" cx="127.61" cy="53.13" r="8.13"/><circle class="cls-8" cx="127.61" cy="53.13" r="3.8"/><path class="cls-8" d="M1556.38,623.92l-3.68,64.23,97.75-2.75v-61l-94.07-.47m-12.37,0,60.39,65a26.53,26.53,0,1,1,24.29-24.29A26.53,26.53,0,0,1,1604.4,688.91Z" transform="translate(-1475.17 -613.06)"/><g id="magenta" class="cls-9"><path class="cls-10" d="M1515.27,667.28v-47c-2.17-1.47-7.37-3.26-13.74-3.26-10.32,0-15.22,4.58-15.22,12.27v5.12h-7.14v3.88h7.14v38h4.5v-38h10.48v-3.88h-10.48V629c0-5.43,2.95-7.92,10.09-7.92a26.57,26.57,0,0,1,9.86,1.47v46c0,5,2.41,8.31,7.92,8.31a14.2,14.2,0,0,0,5.2-.93v-4a8.47,8.47,0,0,1-4,1C1516.44,672.87,1515.27,671.16,1515.27,667.28Z" transform="translate(-1475.17 -613.06)"/><path class="cls-10" d="M1543.76,633.67c-12.34,0-17.08,8.85-17.08,21.81,0,12.73,4.35,21.43,16.61,21.43s17.08-8.93,17.08-21.89C1560.38,642.29,1556,633.67,1543.76,633.67Zm0,39c-8.69,0-12.42-5.82-12.42-17.7,0-11.57,3.26-17.16,12-17.16s12.42,5.74,12.42,17.62C1555.72,667,1552.46,672.72,1543.76,672.72Z" transform="translate(-1475.17 -613.06)"/></g><g id="cyan" class="cls-9"><path class="cls-11" d="M1511.27,663.28v-47c-2.17-1.47-7.37-3.26-13.74-3.26-10.32,0-15.22,4.58-15.22,12.27v5.12h-7.14v3.88h7.14v38h4.5v-38h10.48v-3.88h-10.48V625c0-5.43,2.95-7.92,10.09-7.92a26.57,26.57,0,0,1,9.86,1.47v46c0,5,2.41,8.31,7.92,8.31a14.2,14.2,0,0,0,5.2-.93v-4a8.47,8.47,0,0,1-4,1C1512.44,668.87,1511.27,667.16,1511.27,663.28Z" transform="translate(-1475.17 -613.06)"/><path class="cls-11" d="M1539.76,629.67c-12.34,0-17.08,8.85-17.08,21.81,0,12.73,4.35,21.43,16.61,21.43s17.08-8.93,17.08-21.89C1556.38,638.29,1552,629.67,1539.76,629.67Zm0,39c-8.69,0-12.42-5.82-12.42-17.7,0-11.57,3.26-17.16,12-17.16s12.42,5.74,12.42,17.62C1551.72,663,1548.46,668.72,1539.76,668.72Z" transform="translate(-1475.17 -613.06)"/></g><g id="black"><path class="cls-7" d="M1513.27,665.28v-47c-2.17-1.47-7.37-3.26-13.74-3.26-10.32,0-15.22,4.58-15.22,12.27v5.12h-7.14v3.88h7.14v38h4.5v-38h10.48v-3.88h-10.48V627c0-5.43,2.95-7.92,10.09-7.92a26.57,26.57,0,0,1,9.86,1.47v46c0,5,2.41,8.31,7.92,8.31a14.2,14.2,0,0,0,5.2-.93v-4a8.47,8.47,0,0,1-4,1C1514.44,670.87,1513.27,669.16,1513.27,665.28Z" transform="translate(-1475.17 -613.06)"/><path class="cls-7" d="M1541.76,631.67c-12.34,0-17.08,8.85-17.08,21.81,0,12.73,4.35,21.43,16.61,21.43s17.08-8.93,17.08-21.89C1558.38,640.29,1554,631.67,1541.76,631.67Zm0,39c-8.69,0-12.42-5.82-12.42-17.7,0-11.57,3.26-17.16,12-17.16s12.42,5.74,12.42,17.62C1553.72,665,1550.46,670.72,1541.76,670.72Z" transform="translate(-1475.17 -613.06)"/></g></g></g></svg>