<?xml version="1.0" encoding="utf-8"?>
<!-- Generator: Adobe Illustrator 19.2.1, SVG Export Plug-In . SVG Version: 6.00 Build 0)  -->
<svg version="1.1" id="flo" xmlns="http://www.w3.org/2000/svg" xmlns:xlink="http://www.w3.org/1999/xlink" x="0px" y="0px"
	 viewBox="0 0 2880 1280" style="enable-background:new 0 0 2880 1280;" xml:space="preserve">
<style type="text/css">
	.st0{fill:none;stroke:#ED2590;stroke-width:4;stroke-miterlimit:10;}
	.st1{fill:none;stroke:#33C6F4;stroke-width:4;stroke-miterlimit:10;}
	.st2{fill:none;stroke:#F6EC13;stroke-width:4;stroke-miterlimit:10;}
	.st3{display:none;}
	.st4{display:inline;fill:none;stroke:#33C6F4;stroke-width:4;stroke-miterlimit:10;}
	.st5{display:inline;fill:none;stroke:#74C044;stroke-width:4;stroke-miterlimit:10;}
	.st6{fill:none;stroke:#333333;stroke-width:4;stroke-miterlimit:10;}
	.st7{display:none;fill:none;stroke:#333333;stroke-width:4;stroke-miterlimit:10;}
	.st8{fill:#333333;}
	.st9{fill:#FFFFFF;}
	.st10{fill:#ED2590;}
	.st11{fill:#47C8F5;}
	.st12{fill:none;stroke:#000000;stroke-width:7;stroke-miterlimit:10;}
	.st13{fill:none;stroke:#ED2590;stroke-width:7;stroke-miterlimit:10;}
	.st14{fill:none;stroke:#33C6F4;stroke-width:7;stroke-miterlimit:10;}
	.st15{fill:#33C6F4;}
</style>
<g>
	<g>
		<g>
			<g>
				<line class="st0" x1="1569.5" y1="690.8" x2="1437" y2="690.8"/>
				<line class="st1" x1="1569.5" y1="684.2" x2="1437" y2="684.3"/>
			</g>
			<g>
				<line class="st2" x1="1470.9" y1="690" x2="1443" y2="666"/>
				<line class="st1" x1="1475.1" y1="685.1" x2="1447.3" y2="661"/>
			</g>
			<g class="st3">
				<line class="st4" x1="1476.6" y1="689.9" x2="1471" y2="650"/>
				<line class="st5" x1="1470.2" y1="690.9" x2="1464.5" y2="651"/>
			</g>
		</g>
		<g>
			<line class="st6" x1="1569.5" y1="687.5" x2="1437" y2="687.5"/>
			<line class="st6" x1="1473" y1="687.5" x2="1445.2" y2="663.5"/>
			<line class="st7" x1="1473.4" y1="690.4" x2="1467.8" y2="650.5"/>
		</g>
		<circle class="st8" cx="1473" cy="687.5" r="8.1"/>
		<circle class="st9" cx="1473" cy="687.5" r="3.8"/>
	</g>
</g>
<g>
	<g id="magenta">
		<path class="st10" d="M1514.3,666.3v-47c-2.2-1.5-7.4-3.3-13.7-3.3c-10.3,0-15.2,4.6-15.2,12.3v5.1h-7.1v3.9h7.1v38h4.5v-38h10.5
			v-3.9h-10.5V628c0-5.4,2.9-7.9,10.1-7.9c4.5,0,7.5,0.5,9.9,1.5v46c0,5,2.4,8.3,7.9,8.3c1.4,0,3.6-0.2,5.2-0.9v-4
			c-0.9,0.5-2.3,1-4,1C1515.4,671.9,1514.3,670.2,1514.3,666.3z"/>
		<path class="st10" d="M1542.8,632.7c-12.3,0-17.1,8.8-17.1,21.8c0,12.7,4.3,21.4,16.6,21.4c12.3,0,17.1-8.9,17.1-21.9
			C1559.4,641.3,1555,632.7,1542.8,632.7z M1542.8,671.7c-8.7,0-12.4-5.8-12.4-17.7c0-11.6,3.3-17.2,12-17.2
			c8.7,0,12.4,5.7,12.4,17.6C1554.7,666,1551.5,671.7,1542.8,671.7z"/>
	</g>
	<g id="cyan">
		<path class="st11" d="M1512.3,664.3v-47c-2.2-1.5-7.4-3.3-13.7-3.3c-10.3,0-15.2,4.6-15.2,12.3v5.1h-7.1v3.9h7.1v38h4.5v-38h10.5
			v-3.9h-10.5V626c0-5.4,2.9-7.9,10.1-7.9c4.5,0,7.5,0.5,9.9,1.5v46c0,5,2.4,8.3,7.9,8.3c1.4,0,3.6-0.2,5.2-0.9v-4
			c-0.9,0.5-2.3,1-4,1C1513.4,669.9,1512.3,668.2,1512.3,664.3z"/>
		<path class="st11" d="M1540.8,630.7c-12.3,0-17.1,8.8-17.1,21.8c0,12.7,4.3,21.4,16.6,21.4c12.3,0,17.1-8.9,17.1-21.9
			C1557.4,639.3,1553,630.7,1540.8,630.7z M1540.8,669.7c-8.7,0-12.4-5.8-12.4-17.7c0-11.6,3.3-17.2,12-17.2
			c8.7,0,12.4,5.7,12.4,17.6C1552.7,664,1549.5,669.7,1540.8,669.7z"/>
	</g>
	<g id="black">
		<path class="st8" d="M1513.3,665.3v-47c-2.2-1.5-7.4-3.3-13.7-3.3c-10.3,0-15.2,4.6-15.2,12.3v5.1h-7.1v3.9h7.1v38h4.5v-38h10.5
			v-3.9h-10.5V627c0-5.4,2.9-7.9,10.1-7.9c4.5,0,7.5,0.5,9.9,1.5v46c0,5,2.4,8.3,7.9,8.3c1.4,0,3.6-0.2,5.2-0.9v-4
			c-0.9,0.5-2.3,1-4,1C1514.4,670.9,1513.3,669.2,1513.3,665.3z"/>
		<path class="st8" d="M1541.8,631.7c-12.3,0-17.1,8.8-17.1,21.8c0,12.7,4.3,21.4,16.6,21.4c12.3,0,17.1-8.9,17.1-21.9
			C1558.4,640.3,1554,631.7,1541.8,631.7z M1541.8,670.7c-8.7,0-12.4-5.8-12.4-17.7c0-11.6,3.3-17.2,12-17.2
			c8.7,0,12.4,5.7,12.4,17.6C1553.7,665,1550.5,670.7,1541.8,670.7z"/>
	</g>
</g>
<g>
	<g>
		<circle cx="477.1" cy="334.3" r="10"/>
		<circle cx="737.2" cy="385.9" r="10"/>
		<circle cx="737.2" cy="571.4" r="10"/>
		<circle cx="670.3" cy="470.9" r="10"/>
		<circle cx="804.1" cy="470.9" r="10"/>
		<circle cx="536" cy="302.9" r="10"/>
		<circle cx="594.7" cy="313.9" r="10"/>
		<circle cx="594.7" cy="431.2" r="10"/>
		<circle cx="594.7" cy="527" r="10"/>
		<circle cx="607.3" cy="564.6" r="10"/>
		<circle cx="645.5" cy="562.3" r="10"/>
		<circle cx="477.1" cy="385.9" r="10"/>
		<circle cx="477.1" cy="470.9" r="10"/>
		<circle cx="477.1" cy="571.4" r="10"/>
		<circle cx="434.9" cy="385.9" r="10"/>
		<circle cx="536" cy="385.9" r="10"/>
	</g>
	<g>
		<line class="st12" x1="477.1" y1="334.3" x2="477.1" y2="385.9"/>
		<line class="st12" x1="477.1" y1="385.9" x2="434.9" y2="385.9"/>
		<line class="st12" x1="536" y1="385.9" x2="477.1" y2="385.9"/>
		<line class="st12" x1="477.1" y1="470.9" x2="477.1" y2="385.9"/>
		<line class="st12" x1="477.1" y1="571.4" x2="477.1" y2="470.9"/>
		<line class="st12" x1="477.1" y1="334.3" x2="536" y2="302.9"/>
		<line class="st12" x1="594.7" y1="313.9" x2="536" y2="302.9"/>
		<line class="st12" x1="594.7" y1="431.2" x2="594.7" y2="313.9"/>
		<line class="st12" x1="594.7" y1="527" x2="594.7" y2="431.2"/>
		<line class="st12" x1="607.3" y1="564.6" x2="594.7" y2="527"/>
		<line class="st12" x1="645.5" y1="562.3" x2="607.3" y2="564.6"/>
		<line class="st12" x1="670.3" y1="470.9" x2="737.2" y2="385.9"/>
		<line class="st12" x1="737.2" y1="571.4" x2="670.3" y2="470.9"/>
		<line class="st12" x1="804.1" y1="470.9" x2="737.2" y2="571.4"/>
		<line class="st12" x1="737.2" y1="385.9" x2="804.1" y2="470.9"/>
	</g>
	<g>
		<line class="st13" x1="480.1" y1="337.3" x2="480.1" y2="388.9"/>
		<line class="st13" x1="480.1" y1="388.9" x2="437.9" y2="388.9"/>
		<line class="st13" x1="539" y1="388.9" x2="480.1" y2="388.9"/>
		<line class="st13" x1="480.1" y1="473.9" x2="480.1" y2="388.9"/>
		<line class="st13" x1="480.1" y1="574.4" x2="480.1" y2="473.9"/>
		<line class="st13" x1="480.1" y1="337.3" x2="539" y2="305.9"/>
		<line class="st13" x1="597.7" y1="316.9" x2="539" y2="305.9"/>
		<line class="st13" x1="597.7" y1="434.2" x2="597.7" y2="316.9"/>
		<line class="st13" x1="597.7" y1="530" x2="597.7" y2="434.2"/>
		<line class="st13" x1="610.3" y1="567.6" x2="597.7" y2="530"/>
		<line class="st13" x1="648.5" y1="565.3" x2="610.3" y2="567.6"/>
		<line class="st13" x1="673.3" y1="473.9" x2="740.2" y2="388.9"/>
		<line class="st13" x1="740.2" y1="574.4" x2="673.3" y2="473.9"/>
		<line class="st13" x1="807.1" y1="473.9" x2="740.2" y2="574.4"/>
		<line class="st13" x1="740.2" y1="388.9" x2="807.1" y2="473.9"/>
	</g>
	<g>
		<line class="st14" x1="474.1" y1="332.3" x2="474.1" y2="383.9"/>
		<line class="st14" x1="474.1" y1="383.9" x2="431.9" y2="383.9"/>
		<line class="st14" x1="533" y1="383.9" x2="474.1" y2="383.9"/>
		<line class="st14" x1="474.1" y1="468.9" x2="474.1" y2="383.9"/>
		<line class="st14" x1="474.1" y1="569.4" x2="474.1" y2="468.9"/>
		<line class="st14" x1="474.1" y1="332.3" x2="533" y2="300.9"/>
		<line class="st14" x1="591.7" y1="311.9" x2="533" y2="300.9"/>
		<line class="st14" x1="591.7" y1="429.2" x2="591.7" y2="311.9"/>
		<line class="st14" x1="591.7" y1="525" x2="591.7" y2="429.2"/>
		<line class="st14" x1="604.3" y1="562.6" x2="591.7" y2="525"/>
		<line class="st14" x1="642.5" y1="560.3" x2="604.3" y2="562.6"/>
		<line class="st14" x1="667.3" y1="468.9" x2="734.2" y2="383.9"/>
		<line class="st14" x1="734.2" y1="569.4" x2="667.3" y2="468.9"/>
		<line class="st14" x1="801.1" y1="468.9" x2="734.2" y2="569.4"/>
		<line class="st14" x1="734.2" y1="383.9" x2="801.1" y2="468.9"/>
	</g>
	<g>
		<circle class="st15" cx="477.1" cy="334.3" r="5"/>
		<circle class="st15" cx="737.2" cy="385.9" r="5"/>
		<circle class="st15" cx="737.2" cy="571.4" r="5"/>
		<circle class="st15" cx="670.3" cy="470.9" r="5"/>
		<circle class="st15" cx="804.1" cy="470.9" r="5"/>
		<circle class="st15" cx="536" cy="302.9" r="5"/>
		<circle class="st15" cx="594.7" cy="313.9" r="5"/>
		<circle class="st15" cx="594.7" cy="431.2" r="5"/>
		<circle class="st15" cx="594.7" cy="527" r="5"/>
		<circle class="st15" cx="607.3" cy="564.6" r="5"/>
		<circle class="st15" cx="645.5" cy="562.3" r="5"/>
		<circle class="st15" cx="477.1" cy="385.9" r="5"/>
		<circle class="st15" cx="477.1" cy="470.9" r="5"/>
		<circle class="st15" cx="477.1" cy="571.4" r="5"/>
		<circle class="st15" cx="434.9" cy="385.9" r="5"/>
		<circle class="st15" cx="536" cy="385.9" r="5"/>
	</g>
</g>
</svg>
